<?xml version="1.0" encoding="UTF-8" standalone="no"?>
<!DOCTYPE svg PUBLIC "-//W3C//DTD SVG 1.1//EN" "http://www.w3.org/Graphics/SVG/1.1/DTD/svg11.dtd">
<svg width="100%" height="100%" viewBox="0 0 4889 1812" version="1.1" xmlns="http://www.w3.org/2000/svg" xmlns:xlink="http://www.w3.org/1999/xlink" xml:space="preserve" xmlns:serif="http://www.serif.com/" style="fill-rule:evenodd;clip-rule:evenodd;stroke-linejoin:round;stroke-miterlimit:1.41421;">
    <g transform="matrix(1,0,0,1,-1388.89,-1243.31)">
        <g transform="matrix(4.16667,0,0,4.16667,0,0)">
            <g>
                <path d="M956.976,383.804L915.799,383.804L915.875,430.914C915.875,430.914 931.727,430.96 947.375,430.914C959.709,430.874 966.168,427.604 964.612,417.774C971.563,417.728 980.46,444.971 980.46,444.971C980.46,444.971 914.977,444.989 891.072,444.98C886.585,444.978 867.322,443.357 858.572,452.378C861.405,434.962 886.136,440.312 886.138,417.562C886.14,394.812 886.141,333.813 886.138,330.978C886.124,323.105 880.815,317.234 869.158,320.333C870.839,309.205 887.107,308.431 888.377,308.431L980.092,308.431C980.092,308.431 971.513,336.812 963.48,336.812C965.843,326.263 958.599,323.668 951.147,323.628C934.942,323.542 915.799,323.628 915.799,323.628L915.799,369.023C915.799,369.023 936.768,369.01 944.64,369.023C955.033,369.037 956.976,383.804 956.976,383.804" style="fill:white;fill-rule:nonzero;"/>
                <path d="M1016.13,570.949L965.938,570.949L965.948,629.119L1000.84,629.119C1012.44,629.119 1022.45,628.367 1019.87,615.857C1029.58,615.936 1037.38,644.48 1037.38,644.48C1037.38,644.48 973.848,644.499 943.622,644.492C934.997,644.49 915.647,643.601 906.147,653.96C906.147,628.194 933.367,635.777 933.544,615.915C933.617,607.766 933.552,513.894 933.543,506.001C933.534,499.263 930.171,491.103 921.938,491.103L907.001,491.103C908.858,477.253 927.215,474.495 935.637,474.495L1036.98,474.495C1036.98,474.495 1027.49,504.589 1018.62,504.589C1021.23,491.455 1013.02,490.388 1004.79,490.338C986.882,490.232 965.948,490.337 965.948,490.337L965.938,554.294C965.938,554.294 993.8,554.278 1002.5,554.294C1013.98,554.313 1016.13,570.949 1016.13,570.949" style="fill:white;fill-rule:nonzero;"/>
                <path d="M837.345,375.125C837.389,341.164 813.707,321.863 774.521,323.629C773.813,323.629 773.314,324.074 773.348,325.25C773.258,331.681 773.348,393.885 773.348,430.894C814.554,433.514 837.302,408.604 837.345,375.125M708.102,298.394C715.973,309.416 751.099,308.709 757.071,308.506C800.948,307.002 867.035,308.391 867.035,373.635C867.035,430.618 815.644,444.983 772.604,444.943C770.695,444.94 751.088,445.851 739.593,444.983C725.148,443.894 721.217,436.628 721.375,429.541C725.47,432.956 743.559,432.835 743.615,422.291C743.67,417.3 743.572,360.256 743.615,323.629C723.653,323.943 709.676,316.659 708.102,298.394" style="fill:white;"/>
                <path d="M1100,315.931C1096.25,330.354 1089.5,347.856 1083.56,346.109C1087.55,338.639 1078.33,323.055 1050.5,323.105C1035.22,323.131 1024.24,330.562 1024.31,341.404C1024.38,351.325 1031.29,355.855 1052.13,365.007C1076.73,375.817 1099.33,381.104 1099.35,407.478C1099.36,431.604 1074.8,445.079 1045.96,445.079C1022.74,445.082 1004.12,435.353 994.289,437.417C997.744,425.098 1006.77,404.969 1013.25,407.728C1007.15,419.464 1020.31,431.441 1044.31,431.436C1059.32,431.433 1069.57,425.018 1069.61,412.686C1069.67,398.27 1050.69,391.753 1037.21,385.89C1014.5,376.01 995.272,366.598 994.804,345.103C994.289,321.436 1016.93,308.693 1046.72,308.693C1073.31,308.693 1087.14,317.854 1100,315.931" style="fill:white;"/>
                <path d="M1506.2,482.887C1501.53,500.833 1493.13,522.612 1485.74,520.437C1490.71,511.143 1482.22,489.764 1447.59,489.825C1428.58,489.859 1414.92,498.604 1415.01,512.094C1415.1,524.439 1423.7,532.565 1449.63,543.954C1480.25,557.404 1506.1,564.83 1506.1,597.701C1506.1,625.958 1478,644.693 1440.23,644.693C1408.33,644.693 1395.43,631.18 1382.66,632.81C1386.96,617.48 1398.19,593.679 1406.26,597.113C1398.66,611.716 1412.13,628.602 1442,628.595C1460.68,628.592 1474.25,619.816 1474.19,604.47C1474.12,586.115 1447.85,577.234 1431.07,569.937C1402.8,557.644 1382.81,543.615 1382.78,519.522C1382.75,490.841 1405.86,473.489 1442.93,473.489C1476.01,473.489 1490.19,485.28 1506.2,482.887" style="fill:white;"/>
                <path d="M1376.87,308.693C1374.68,314.192 1365.83,336.914 1357.88,336.914C1361.58,326.02 1355.71,323.105 1344.71,323.105L1324.93,323.105C1324.91,343.759 1324.92,384.352 1324.93,420.52C1324.94,437.384 1347.67,433.104 1350.26,451.993C1338.54,444.748 1317.87,444.613 1310.6,444.806C1300.83,445.065 1291.91,445.87 1285.46,445.87C1281.68,445.87 1274.38,438.511 1275.89,433.862C1293.67,433.77 1295.2,426.02 1295.2,420.103L1295.2,323.125C1288.24,323.18 1281.58,323.134 1274.05,323.105C1267.75,323.081 1258,326.52 1262.33,336.914C1254.83,336.914 1246.62,315.652 1243.69,308.693C1244.43,308.688 1362.51,308.693 1376.87,308.693" style="fill:white;"/>
                <path d="M883.237,474.756C878.037,474.826 873.416,484.994 872.266,489.008C884.056,487.389 893.701,489.28 888.645,504.694C884.375,517.713 856.373,603.074 853.083,613.109C844.54,587.152 824.33,525.743 815.61,499.088C812.25,488.853 819.25,487.478 827.956,487.814C826.625,483.228 824.125,474.756 818.54,474.738C814.815,474.727 806.597,475.315 794.097,475.314C777.146,475.313 760.833,473.437 755.307,469.17C755.307,482.604 775.609,481.14 780.88,497.154C790.795,527.281 826.36,635.345 830.66,648.41C837.131,668.073 862.485,674.425 872.302,672.158C873.552,671.869 873.784,671.166 873.64,670.056C860.581,669.325 859.984,650.991 862.977,641.866C876.845,599.584 910.118,498.463 913.376,488.207C918.095,473.342 934.782,481.767 936.613,474.489C923.353,474.489 919.403,474.46 902.919,474.489C891.954,474.509 889.315,474.673 883.237,474.756" style="fill:white;fill-rule:nonzero;"/>
                <path d="M654.818,357.97C657.645,363.591 628.698,438.882 617.676,423.197C626.363,409.731 601.008,356.726 524.848,356.656C466,356.603 382.414,404.777 383.627,507.634C384.667,595.865 451,649.103 521.402,649.144C590.918,649.184 629.667,603.437 647.4,573.071C659.754,573.23 667.65,565.323 667.193,582.197C630.693,655.603 571.668,680.524 510.906,680.524C415.5,680.524 333.332,605.031 333.332,506.449C333.332,395.603 426.667,332.123 520.601,332.123C605.334,332.123 640.71,363.116 654.818,357.97" style="fill:white;"/>
                <path d="M1304.99,478.501C1326.86,474.366 1336.92,486.154 1337,503.354C1337.1,524.347 1337.09,564.052 1337,572.604C1326.94,560.582 1295.79,523.44 1266.88,488.813C1260.27,480.9 1251.02,473.164 1238.77,469.005C1229.81,465.96 1209.47,464.226 1203.92,467.155C1206.56,467.979 1215.25,472.041 1221.68,481.194C1225.42,486.515 1227.92,492.606 1227.92,506.354L1227.92,610.939C1227.92,631.023 1221.44,632.372 1210.92,631.273C1211.33,633.961 1215.71,644.095 1220.42,644.095C1222.03,644.095 1233.8,643.013 1244.75,643.107C1262.6,643.261 1268.87,644.095 1271.42,644.095C1275.96,644.095 1280.46,635.438 1280.83,630.521C1265.21,633.334 1249.65,633.442 1249.75,615.541C1249.82,602.726 1249.83,520.855 1249.83,518.604C1254.62,524.444 1306.63,586.633 1326.82,610.754C1340.81,627.467 1355.82,646.174 1375.78,644C1357.32,628.784 1358.57,615.486 1358.53,596.563C1358.44,559.842 1358.11,522.045 1358.47,502.729C1358.92,478.18 1365.82,482.891 1367.7,472.661C1361.7,475.73 1348.26,475.794 1340.9,474.664C1331.71,473.252 1315.07,466.226 1304.99,478.501" style="fill:white;fill-rule:nonzero;"/>
                <path d="M1180.84,430.915C1154.25,430.915 1142.33,405.104 1142.27,376.851C1142.21,350.75 1156.04,323.513 1182.19,323.337C1208.45,323.154 1219.15,346.555 1219.08,376.851C1219.01,406.427 1205.93,430.915 1180.84,430.915M1248.68,376.91C1248.68,342.163 1229.61,308.74 1181.84,308.74C1134,308.74 1112.68,345.436 1112.68,376.851C1112.68,412.155 1133.34,445.08 1180.84,445.08C1224.99,445.08 1248.68,413.83 1248.68,376.91" style="fill:white;"/>
                <path d="M1438.84,430.915C1412.25,430.915 1400.33,405.104 1400.27,376.851C1400.21,350.75 1414.04,323.513 1440.19,323.337C1466.45,323.154 1477.15,346.555 1477.08,376.851C1477.01,406.427 1463.93,430.915 1438.84,430.915M1506.68,376.91C1506.68,342.163 1487.61,308.74 1439.84,308.74C1392,308.74 1370.68,345.436 1370.68,376.851C1370.68,412.155 1391.34,445.08 1438.84,445.08C1482.99,445.08 1506.68,413.83 1506.68,376.91" style="fill:white;"/>
                <path d="M719.139,651.205C734.631,638.985 762.647,643.431 762.647,643.431C762.647,643.431 788.834,646.536 799.577,643.532C804.085,642.271 806.546,632.946 806.918,630.604C800.827,631.59 787.464,634.451 782.159,618.33C769.338,579.376 746.067,508.664 734.377,473.146C732.129,466.316 723.022,467.531 711.358,464.598C703.077,462.515 698.117,458.181 693.706,451.796C691.328,474.29 670.375,537.978 638.78,587.321C641.015,587.758 653.237,606.159 659.433,595.922C685.5,552.853 703.449,492.885 704.035,484.384C705.785,489.765 744.016,605.865 746.787,614.286C754.916,638.985 721.117,629.848 719.139,651.205" style="fill:white;fill-rule:nonzero;"/>
                <path d="M701.733,597.866C714,583.77 750.205,561.812 779.323,569.589C778.835,567.701 779.981,564.221 776.521,562.402C758.368,552.858 722.689,556.295 703.195,565.505C675.418,553.095 646.187,556.712 633.627,564.756C629.746,567.242 630.703,570.294 631.069,571.471C650,566.603 683.091,569.118 701.733,597.866" style="fill:white;fill-rule:nonzero;"/>
                <path d="M1150.76,564.326C1167.38,564.086 1197.12,548.603 1197.12,520.041C1197.12,482.387 1160.76,474.233 1118.12,474.233L1061.88,474.233C1054.22,474.233 1050.92,481.24 1047.94,489.263C1063.34,486.574 1069.65,491.78 1069.62,503.26C1069.54,528.703 1069.43,573.33 1069.62,604.119C1069.76,629.094 1064.42,633.514 1046.42,630.596C1047.83,638.603 1056.86,644.716 1061.09,644.76C1065.87,644.838 1074.75,643.378 1086.84,643.129C1106.25,642.728 1124.25,645.329 1129.59,651.508C1131.29,630.14 1101.99,637.66 1101.95,620.42C1101.92,610.754 1101.92,501.168 1101.95,490.318C1105.94,490.318 1116.02,490.351 1119.81,490.318C1144.5,490.103 1164.85,499.853 1164.8,521.442C1164.75,541.353 1147.25,558.103 1122.88,558.103C1116.97,558.103 1110.94,558.041 1107.35,557.645C1106.01,561.131 1109.33,572.823 1114.96,572.875C1140,573.103 1150.01,585.088 1158.21,611.204C1191,715.603 1257.25,733.121 1312.92,733.121C1352.67,733.121 1399.03,714.77 1409.42,684.205C1404.42,693.73 1370.97,713.041 1329.25,713.212C1288.67,713.378 1217.88,700.922 1194.38,603.486C1190.17,586.021 1183,563.828 1150.76,564.326" style="fill:white;fill-rule:nonzero;"/>
            </g>
        </g>
    </g>
</svg>
