<?xml version="1.0" encoding="UTF-8" standalone="no"?><!DOCTYPE svg PUBLIC "-//W3C//DTD SVG 1.1//EN" "http://www.w3.org/Graphics/SVG/1.1/DTD/svg11.dtd"><svg width="100%" height="100%" viewBox="0 0 24 24" version="1.1" xmlns="http://www.w3.org/2000/svg" xmlns:xlink="http://www.w3.org/1999/xlink" xml:space="preserve" xmlns:serif="http://www.serif.com/" style="fill-rule:evenodd;clip-rule:evenodd;stroke-linejoin:round;stroke-miterlimit:1.41421;"><path d="M12,0c-6.617,0 -12,5.383 -12,12c0,6.617 5.383,12 12,12c6.617,0 12,-5.383 12,-12c0,-6.617 -5.383,-12 -12,-12Zm6,6l-12,0c-1.103,0 -2,0.897 -2,2l0,8c0,1.103 0.897,2 2,2l12,0c1.103,0 2,-0.897 2,-2l0,-8c0,-1.103 -0.897,-2 -2,-2Zm-0.113,2.184c-0.175,-0.214 -0.49,-0.245 -0.704,-0.07l-5.183,4.24l-5.183,-4.24c-0.214,-0.175 -0.529,-0.144 -0.704,0.07c-0.175,0.214 -0.144,0.529 0.07,0.704l3.618,2.96l-3.566,2.229c-0.234,0.147 -0.306,0.454 -0.159,0.689c0.095,0.151 0.258,0.234 0.424,0.234c0.091,0 0.182,-0.024 0.265,-0.075l3.854,-2.409l1.064,0.872c0.092,0.075 0.204,0.112 0.317,0.112c0.112,0 0.224,-0.037 0.317,-0.112l1.065,-0.872l3.853,2.409c0.082,0.051 0.174,0.075 0.264,0.075c0.167,0 0.33,-0.083 0.425,-0.234c0.146,-0.235 0.075,-0.542 -0.159,-0.689l-3.567,-2.229l3.619,-2.96c0.213,-0.175 0.245,-0.49 0.07,-0.704Z"/></svg>