<?xml version="1.0" encoding="UTF-8" standalone="no"?><!DOCTYPE svg PUBLIC "-//W3C//DTD SVG 1.1//EN" "http://www.w3.org/Graphics/SVG/1.1/DTD/svg11.dtd"><svg width="100%" height="100%" viewBox="0 0 24 24" version="1.1" xmlns="http://www.w3.org/2000/svg" xmlns:xlink="http://www.w3.org/1999/xlink" xml:space="preserve" xmlns:serif="http://www.serif.com/" style="fill-rule:evenodd;clip-rule:evenodd;stroke-linejoin:round;stroke-miterlimit:1.41421;"><path d="M15.595,11.5l-2.095,0l0,7l-3,0l0,-7l-2,0l0,-2l2,0l0,-1.164c0,-1.099 0.352,-2.818 2.65,-2.818l2.35,0.006l0,2.306l-1.408,0c-0.244,0 -0.592,0.124 -0.592,0.647l0,1.023l2.339,0l-0.244,2Zm-3.595,-11.5c-6.617,0 -12,5.383 -12,12c0,6.617 5.383,12 12,12c6.617,0 12,-5.383 12,-12c0,-6.617 -5.383,-12 -12,-12" style="fill-rule:nonzero;"/></svg>