<?xml version="1.0" encoding="UTF-8" standalone="no"?><!DOCTYPE svg PUBLIC "-//W3C//DTD SVG 1.1//EN" "http://www.w3.org/Graphics/SVG/1.1/DTD/svg11.dtd"><svg width="100%" height="100%" viewBox="0 0 24 24" version="1.1" xmlns="http://www.w3.org/2000/svg" xmlns:xlink="http://www.w3.org/1999/xlink" xml:space="preserve" xmlns:serif="http://www.serif.com/" style="fill-rule:evenodd;clip-rule:evenodd;stroke-linejoin:round;stroke-miterlimit:1.41421;"><path d="M12,0c-6.617,0 -12,5.384 -12,12c0,6.617 5.383,12 12,12c6.617,0 12,-5.383 12,-12c0,-6.616 -5.383,-12 -12,-12Zm4.167,19c1.562,0 2.833,-1.271 2.833,-2.834l0,-8.334c0,-1.562 -1.271,-2.832 -2.833,-2.832l-8.334,0c-1.562,0 -2.833,1.27 -2.833,2.832l0,8.334c0,1.563 1.271,2.834 2.833,2.834l8.334,0Zm-1.167,-7.5c0,-1.657 -1.344,-3 -3,-3c-1.657,0 -3,1.343 -3,3c0,1.656 1.343,3 3,3c1.656,0 3,-1.344 3,-3Zm-8,-1.976l0,-3.314c-0.591,0.304 -1,0.913 -1,1.622l0,1.695l1,-0.003Zm2,-3.524l0,2.883c-0.172,0.197 -0.323,0.409 -0.455,0.638l-0.545,0.001l0,-3.522l1,0Zm7.167,0c1.011,0.001 1.833,0.823 1.833,1.831l0,1.67l-2.553,0.005c-0.693,-1.193 -1.97,-2.006 -3.447,-2.006c-0.731,0 -1.409,0.212 -2,0.556l0,-2.056l6.167,0Zm0.833,2l0,-1l-1,0l0,1l1,0Z"/></svg>