<?xml version="1.0" encoding="UTF-8" standalone="no"?><!DOCTYPE svg PUBLIC "-//W3C//DTD SVG 1.1//EN" "http://www.w3.org/Graphics/SVG/1.1/DTD/svg11.dtd"><svg width="100%" height="100%" viewBox="0 0 24 24" version="1.1" xmlns="http://www.w3.org/2000/svg" xmlns:xlink="http://www.w3.org/1999/xlink" xml:space="preserve" xmlns:serif="http://www.serif.com/" style="fill-rule:evenodd;clip-rule:evenodd;stroke-linejoin:round;stroke-miterlimit:1.41421;"><path d="M16.312,6.89l-2.228,1.783l0.889,2.669c0.07,0.211 -0.006,0.442 -0.187,0.569c-0.087,0.059 -0.187,0.089 -0.286,0.089c-0.112,0 -0.222,-0.037 -0.313,-0.11l-2.187,-1.75l-2.188,1.75c-0.174,0.139 -0.416,0.147 -0.599,0.021c-0.181,-0.127 -0.258,-0.358 -0.188,-0.569l0.89,-2.669l-2.228,-1.783c-0.166,-0.132 -0.229,-0.354 -0.159,-0.556c0.07,-0.2 0.259,-0.334 0.472,-0.334l2.661,0l0.874,-2.186c0.076,-0.19 0.259,-0.314 0.465,-0.314c0.204,0 0.387,0.124 0.463,0.314l0.874,2.186l2.663,0c0.211,0 0.401,0.134 0.471,0.334c0.071,0.202 0.006,0.424 -0.159,0.556m-4.312,-6.89c-4.412,0 -8,3.589 -8,8c0,4.244 7.272,15.307 7.583,15.776c0.091,0.139 0.249,0.224 0.417,0.224c0.168,0 0.324,-0.085 0.417,-0.224c0.309,-0.469 7.583,-11.532 7.583,-15.776c0,-4.411 -3.589,-8 -8,-8" style="fill-rule:nonzero;"/></svg>