<?xml version="1.0" encoding="UTF-8" standalone="no"?><!DOCTYPE svg PUBLIC "-//W3C//DTD SVG 1.1//EN" "http://www.w3.org/Graphics/SVG/1.1/DTD/svg11.dtd"><svg width="100%" height="100%" viewBox="0 0 24 24" version="1.1" xmlns="http://www.w3.org/2000/svg" xmlns:xlink="http://www.w3.org/1999/xlink" xml:space="preserve" xmlns:serif="http://www.serif.com/" style="fill-rule:evenodd;clip-rule:evenodd;stroke-linejoin:round;stroke-miterlimit:1.41421;"><path d="M18,19l-12,0l0,-14l12,0l0,14Zm-6,3.5c-0.552,0 -1,-0.448 -1,-1c0,-0.553 0.448,-1 1,-1c0.553,0 1,0.447 1,1c0,0.552 -0.447,1 -1,1m-2.5,-20.5l5,0c0.276,0 0.5,0.224 0.5,0.5c0,0.276 -0.224,0.5 -0.5,0.5l-5,0c-0.276,0 -0.5,-0.224 -0.5,-0.5c0,-0.276 0.224,-0.5 0.5,-0.5m7,-2l-9,0c-1.379,0 -2.5,1.122 -2.5,2.5l0,19c0,1.378 1.121,2.5 2.5,2.5l9,0c1.378,0 2.5,-1.122 2.5,-2.5l0,-1.5l0,-16l0,-1.5c0,-1.378 -1.122,-2.5 -2.5,-2.5" style="fill-rule:nonzero;"/></svg>