<?xml version="1.0" encoding="UTF-8" standalone="no"?><!DOCTYPE svg PUBLIC "-//W3C//DTD SVG 1.1//EN" "http://www.w3.org/Graphics/SVG/1.1/DTD/svg11.dtd"><svg width="100%" height="100%" viewBox="0 0 24 24" version="1.1" xmlns="http://www.w3.org/2000/svg" xmlns:xlink="http://www.w3.org/1999/xlink" xml:space="preserve" xmlns:serif="http://www.serif.com/" style="fill-rule:evenodd;clip-rule:evenodd;stroke-linejoin:round;stroke-miterlimit:1.41421;"><path d="M12,0c-6.617,0 -12,5.384 -12,12c0,6.617 5.383,12 12,12c6.617,0 12,-5.383 12,-12c0,-6.616 -5.383,-12 -12,-12Zm1.235,15.562c-0.992,0 -1.926,-0.536 -2.244,-1.145c0,0 -0.535,2.118 -0.648,2.527c-0.397,1.443 -1.569,2.889 -1.659,3.007c-0.064,0.084 -0.203,0.057 -0.218,-0.054c-0.026,-0.183 -0.324,-2.004 0.028,-3.491c0.175,-0.747 1.182,-5.009 1.182,-5.009c0,0 -0.295,-0.587 -0.295,-1.453c0,-1.363 0.79,-2.379 1.774,-2.379c0.836,0 1.24,0.627 1.24,1.379c0,0.841 -0.535,2.097 -0.813,3.261c-0.231,0.976 0.49,1.772 1.452,1.772c1.74,0 2.913,-2.238 2.913,-4.888c0,-2.012 -1.356,-3.521 -3.824,-3.521c-2.786,0 -4.525,2.079 -4.525,4.401c0,0.497 0.091,0.903 0.249,1.245l-1.512,0.805c-0.356,-0.637 -0.528,-1.433 -0.528,-2.279c0,-2.611 2.201,-5.741 6.569,-5.741c3.509,0 5.818,2.539 5.818,5.266c0,3.604 -2.005,6.297 -4.959,6.297Z"/></svg>