<?xml version="1.0" encoding="UTF-8" standalone="no"?><!DOCTYPE svg PUBLIC "-//W3C//DTD SVG 1.1//EN" "http://www.w3.org/Graphics/SVG/1.1/DTD/svg11.dtd"><svg width="100%" height="100%" viewBox="0 0 24 24" version="1.1" xmlns="http://www.w3.org/2000/svg" xmlns:xlink="http://www.w3.org/1999/xlink" xml:space="preserve" xmlns:serif="http://www.serif.com/" style="fill-rule:evenodd;clip-rule:evenodd;stroke-linejoin:round;stroke-miterlimit:1.41421;"><path d="M17.262,9.385c0.006,0.113 0.008,0.226 0.008,0.34c0,3.478 -2.648,7.49 -7.489,7.49c-1.486,0 -2.87,-0.437 -4.035,-1.184c1.374,0.161 2.772,-0.207 3.897,-1.089c-1.152,-0.022 -2.123,-0.783 -2.458,-1.829c0.396,0.075 0.803,0.061 1.188,-0.045c-1.204,-0.241 -2.111,-1.305 -2.111,-2.579l0,-0.035c0.355,0.197 0.762,0.315 1.192,0.329c-0.706,-0.472 -1.171,-1.277 -1.171,-2.19c0,-0.482 0.13,-0.934 0.357,-1.324c1.298,1.593 3.237,2.642 5.425,2.75c-0.045,-0.192 -0.069,-0.394 -0.069,-0.599c0,-1.454 1.179,-2.633 2.633,-2.633c0.757,0 1.441,0.32 1.921,0.832c0.6,-0.119 1.95,-0.265 1.95,-0.265c-0.352,0.528 -0.723,1.659 -1.238,2.031m-5.262,-9.385c-6.617,0 -12,5.383 -12,12c0,6.617 5.383,12 12,12c6.617,0 12,-5.383 12,-12c0,-6.617 -5.383,-12 -12,-12" style="fill-rule:nonzero;"/></svg>